<?xml version="1.0" encoding="utf-8"?>
<!-- Generator: Adobe Illustrator 16.0.0, SVG Export Plug-In . SVG Version: 6.00 Build 0)  -->
<!DOCTYPE svg PUBLIC "-//W3C//DTD SVG 1.1//EN" "http://www.w3.org/Graphics/SVG/1.1/DTD/svg11.dtd">
<svg version="1.1" id="Layer_1" xmlns="http://www.w3.org/2000/svg" xmlns:xlink="http://www.w3.org/1999/xlink" x="0px" y="0px"
	 width="36px" height="32px" viewBox="0 0 36 32" enable-background="new 0 0 36 32" xml:space="preserve">
<g id="Layer_2">
</g>
<g id="Layer_3">
	<g>
		<g>
			<defs>
				<rect id="SVGID_1_" width="36" height="32"/>
			</defs>
			<clipPath id="SVGID_2_">
				<use xlink:href="#SVGID_1_"  overflow="visible"/>
			</clipPath>
		</g>
		<g>
			<defs>
				<rect id="SVGID_3_" width="36" height="32"/>
			</defs>
			<clipPath id="SVGID_4_">
				<use xlink:href="#SVGID_3_"  overflow="visible"/>
			</clipPath>
			<g id="Art" clip-path="url(#SVGID_4_)">
				<path fill="#A6A6A6" d="M46.545,110.895c0,2.763-2.238,5-5,5h-7.252H2.122h-4.576c-2.761,0-5-2.237-5-5V34.867
					c0-2.764,2.239-5,5-5h44c2.763,0,5,2.236,5,5L46.545,110.895L46.545,110.895z"/>
				<g>
					
						<linearGradient id="SVGID_5_" gradientUnits="userSpaceOnUse" x1="319.5449" y1="482.8945" x2="319.5449" y2="400.8672" gradientTransform="matrix(1 0 0 1 -300 -370)">
						<stop  offset="0" style="stop-color:#FFFFBC"/>
						<stop  offset="1" style="stop-color:#FFFFDB"/>
					</linearGradient>
					<path fill="url(#SVGID_5_)" d="M41.998,30.867h-44c-2.206,0-4.453,1.75-4.453,3.9v74.162c0,2.151,2.247,3.965,4.453,3.965
						h5.803h28.844h9.352c2.207,0,3.549-1.812,3.549-3.965V34.77C45.545,32.617,44.203,30.867,41.998,30.867z"/>
					<path fill="#CCCCCC" d="M41.545,31.867c1.654,0,3,1.302,3,2.9v74.162c0,1.6-0.895,2.965-2.549,2.965h-9.152H3.359h-5.361
						c-1.654,0-3.452-1.365-3.452-2.965V34.77c0-1.601,1.798-2.901,3.453-2.901L41.545,31.867 M41.996,29.867H-2.002
						c-2.761,0-5.452,2.193-5.452,4.9v74.162c0,2.709,2.691,4.965,5.453,4.965h4.46h31.395h8.146c2.76,0,4.547-2.256,4.547-4.965
						V34.77c0-2.707-2.014-4.901-4.772-4.901L41.996,29.867L41.996,29.867z"/>
				</g>
			</g>
		</g>
		<g>
			<defs>
				<rect id="SVGID_6_" width="36" height="32"/>
			</defs>
			<clipPath id="SVGID_7_">
				<use xlink:href="#SVGID_6_"  overflow="visible"/>
			</clipPath>
			<g id="Art_1_" clip-path="url(#SVGID_7_)">
				<path fill="#A6A6A6" d="M35.41,113.895l-16.877,30.037L0.908,113.895"/>
				<g>
					<path fill="#FFFFBC" d="M2.956,111.807l15.417,27.162l14.953-27.162"/>
					<path fill="#CCCCCC" d="M32.861,111.904L18.504,138.02L3.376,111.904 M1.394,111.904l17.11,29.85l16.527-29.85"/>
				</g>
			</g>
		</g>
		<g>
			<defs>
				<rect id="SVGID_8_" width="36" height="32"/>
			</defs>
			<clipPath id="SVGID_9_">
				<use xlink:href="#SVGID_8_"  overflow="visible"/>
			</clipPath>
			<g id="Art_2_" clip-path="url(#SVGID_9_)">
				<g>
					<path fill="#FFFFDB" d="M33.389,31.963L18.435,4.801L3.018,31.963"/>
					<path fill="#CCCCCC" d="M3.376,31.857L18.504,5.743l14.357,26.116 M35.031,31.857L18.504,2.009L1.394,31.857"/>
				</g>
			</g>
		</g>
	</g>
</g>
</svg>
