<?xml version="1.0" encoding="utf-8"?>
<!-- Generator: Adobe Illustrator 16.0.0, SVG Export Plug-In . SVG Version: 6.00 Build 0)  -->
<!DOCTYPE svg PUBLIC "-//W3C//DTD SVG 1.1//EN" "http://www.w3.org/Graphics/SVG/1.1/DTD/svg11.dtd">
<svg version="1.1" id="Layer_2" xmlns="http://www.w3.org/2000/svg" xmlns:xlink="http://www.w3.org/1999/xlink" x="0px" y="0px"
	 width="100px" height="100px" viewBox="0 0 100 100" enable-background="new 0 0 100 100" xml:space="preserve">
<g>
	<defs>
		<rect id="SVGID_1_" width="100" height="100"/>
	</defs>
	<clipPath id="SVGID_2_">
		<use xlink:href="#SVGID_1_"  overflow="visible"/>
	</clipPath>
	<g opacity="0.66" clip-path="url(#SVGID_2_)">
		<path opacity="0" d="M173.086,11.544c0,33.988-27.555,61.543-61.543,61.543H-11.544c-33.988,0-61.542-27.555-61.542-61.543"/>
		<path opacity="0.0204" d="M171.787,11.128c0,33.463-27.129,60.592-60.594,60.592H-11.194c-33.464,0-60.593-27.129-60.593-60.592"
			/>
		<path opacity="0.0408" d="M170.488,10.71c0,32.939-26.705,59.645-59.645,59.645H-10.845c-32.939,0-59.643-26.705-59.643-59.645"/>
		<path opacity="0.0612" d="M169.188,10.296c0,32.414-26.277,58.693-58.693,58.693H-10.495c-32.415,0-58.693-26.279-58.693-58.693"
			/>
		<path opacity="0.0816" d="M167.889,9.878c0,31.891-25.854,57.744-57.744,57.744h-120.29c-31.891,0-57.743-25.854-57.743-57.744"/>
		<path opacity="0.102" d="M166.59,9.462c0,31.365-25.428,56.795-56.793,56.795H-9.796c-31.366,0-56.794-25.43-56.794-56.795"/>
		<path opacity="0.1224" d="M165.291,9.046c0,30.842-25.004,55.844-55.844,55.844H-9.446c-30.842,0-55.844-25.002-55.844-55.844"/>
		<path opacity="0.1429" d="M163.99,8.63c0,30.316-24.576,54.895-54.893,54.895H-9.098c-30.316,0-54.893-24.578-54.893-54.895"/>
		<path opacity="0.1633" d="M162.691,8.214c0,29.791-24.152,53.943-53.943,53.943H-8.748c-29.792,0-53.943-24.152-53.943-53.943"/>
		<path opacity="0.1837" d="M161.393,7.798c0,29.268-23.727,52.994-52.994,52.994H-8.398c-29.268,0-52.994-23.727-52.994-52.994"/>
		<path opacity="0.2041" d="M160.094,7.382c0,28.742-23.303,52.045-52.045,52.045H-8.049c-28.743,0-52.044-23.303-52.044-52.045"/>
		<path opacity="0.2245" d="M158.793,6.966c0,28.217-22.877,51.094-51.094,51.094H-7.7c-28.218,0-51.094-22.877-51.094-51.094"/>
		<path opacity="0.2449" d="M157.494,6.55c0,27.693-22.451,50.145-50.145,50.145h-114.7c-27.693,0-50.144-22.451-50.144-50.145"/>
		<path opacity="0.2653" d="M156.195,6.134c0,27.168-22.025,49.193-49.195,49.193H-7.001c-27.169,0-49.194-22.025-49.194-49.193"/>
		<path opacity="0.2857" d="M154.896,5.716c0,26.645-21.602,48.246-48.246,48.246H-6.651c-26.645,0-48.244-21.602-48.244-48.246"/>
		<path opacity="0.3061" d="M153.596,5.302c0,26.119-21.176,47.295-47.295,47.295H-6.302c-26.12,0-47.295-21.176-47.295-47.295"/>
		<path opacity="0.3265" d="M152.297,4.884c0,25.596-20.75,46.346-46.346,46.346H-5.952c-25.596,0-46.345-20.75-46.345-46.346"/>
		<path opacity="0.3469" d="M150.998,4.468c0,25.07-20.324,45.396-45.395,45.396H-5.603c-25.071,0-45.396-20.326-45.396-45.396"/>
		<path opacity="0.3673" d="M149.697,4.052c0,24.547-19.898,44.445-44.443,44.445H-5.253c-24.547,0-44.445-19.898-44.445-44.445"/>
		<path opacity="0.3878" d="M148.398,3.636c0,24.021-19.475,43.496-43.494,43.496H-4.904c-24.021,0-43.494-19.475-43.494-43.496"/>
		<path opacity="0.4082" d="M147.1,3.22c0,23.496-19.049,42.547-42.547,42.547H-4.555C-28.052,45.767-47.1,26.716-47.1,3.22"/>
		<path opacity="0.4286" d="M145.801,2.804c0,22.973-18.623,41.596-41.596,41.596H-4.205c-22.973,0-41.596-18.623-41.596-41.596"/>
		<path opacity="0.449" d="M144.502,2.388c0,22.447-18.199,40.646-40.646,40.646H-3.855c-22.447,0-40.646-18.199-40.646-40.646"/>
		<path opacity="0.4694" d="M143.201,1.972c0,21.922-17.773,39.695-39.695,39.695H-3.506c-21.924,0-39.696-17.773-39.696-39.695"/>
		<path opacity="0.4898" d="M141.902,1.556c0,21.398-17.348,38.746-38.746,38.746H-3.156c-21.398,0-38.746-17.348-38.746-38.746"/>
		<path opacity="0.5102" d="M140.604,1.14c0,20.873-16.924,37.795-37.797,37.795H-2.807c-20.874,0-37.797-16.922-37.797-37.795"/>
		<path opacity="0.5306" d="M139.303,0.724c0,20.35-16.496,36.846-36.846,36.846H-2.457c-20.351,0-36.847-16.496-36.847-36.846"/>
		<path opacity="0.551" d="M138.004,0.308c0,19.824-16.07,35.896-35.896,35.896H-2.107c-19.825,0-35.897-16.072-35.897-35.896"/>
		<path opacity="0.5714" d="M136.705-0.11c0,19.301-15.646,34.947-34.947,34.947H-1.758c-19.301,0-34.947-15.646-34.947-34.947"/>
		<path opacity="0.5918" d="M135.406-0.526c0,18.777-15.223,33.998-33.998,33.998H-1.409c-18.775,0-33.997-15.221-33.997-33.998"/>
		<path opacity="0.6122" d="M134.107-0.942c0,18.252-14.797,33.047-33.049,33.047H-1.06c-18.251,0-33.047-14.795-33.047-33.047"/>
		<path opacity="0.6327" d="M132.807-1.358c0,17.727-14.371,32.098-32.098,32.098H-0.71c-17.727,0-32.098-14.371-32.098-32.098"/>
		<path opacity="0.6531" d="M131.508-1.774c0,17.203-13.945,31.148-31.146,31.148H-0.36c-17.202,0-31.147-13.945-31.147-31.148"/>
		<path opacity="0.6735" d="M130.209-2.19c0,16.678-13.521,30.197-30.197,30.197H-0.011c-16.678,0-30.198-13.52-30.198-30.197"/>
		<path opacity="0.6939" d="M128.91-2.606c0,16.152-13.096,29.248-29.248,29.248H0.339c-16.153,0-29.248-13.096-29.248-29.248"/>
		<path opacity="0.7143" d="M127.609-3.022c0,15.629-12.67,28.297-28.297,28.297H0.688c-15.629,0-28.298-12.668-28.298-28.297"/>
		<path opacity="0.7347" d="M126.311-3.438c0,15.104-12.244,27.348-27.348,27.348H1.038c-15.104,0-27.349-12.244-27.349-27.348"/>
		<path opacity="0.7551" d="M125.012-3.854c0,14.578-11.82,26.398-26.398,26.398H1.387c-14.579,0-26.397-11.82-26.397-26.398"/>
		<path opacity="0.7755" d="M123.711-4.271c0,14.055-11.393,25.447-25.447,25.447H1.736c-14.055,0-25.448-11.393-25.448-25.447"/>
		<path opacity="0.7959" d="M122.412-4.687c0,13.529-10.969,24.498-24.498,24.498H2.086c-13.53,0-24.498-10.969-24.498-24.498"/>
		<path opacity="0.8163" d="M121.113-5.104c0,13.006-10.543,23.549-23.549,23.549H2.436c-13.006,0-23.549-10.543-23.549-23.549"/>
		<path opacity="0.8367" d="M119.814-5.521c0,12.482-10.119,22.6-22.6,22.6H2.785c-12.481,0-22.6-10.117-22.6-22.6"/>
		<path opacity="0.8571" d="M118.516-5.937c0,11.957-9.693,21.648-21.65,21.648H3.135c-11.956,0-21.649-9.691-21.649-21.648"/>
		<path opacity="0.8776" d="M117.215-6.353c0,11.432-9.268,20.699-20.699,20.699H3.484c-11.433,0-20.7-9.268-20.7-20.699"/>
		<path opacity="0.898" d="M115.916-6.769c0,10.908-8.842,19.75-19.75,19.75H3.834c-10.907,0-19.75-8.842-19.75-19.75"/>
		<path opacity="0.9184" d="M114.617-7.185c0,10.383-8.418,18.799-18.801,18.799H4.183c-10.383,0-18.799-8.416-18.799-18.799"/>
		<path opacity="0.9388" d="M113.316-7.601c0,9.857-7.99,17.85-17.85,17.85H4.532c-9.857,0-17.85-7.992-17.85-17.85"/>
		<path opacity="0.9592" d="M112.018-8.017c0,9.334-7.566,16.898-16.898,16.898H4.882c-9.333,0-16.899-7.564-16.899-16.898"/>
		<path opacity="0.9796" d="M110.719-8.433c0,8.809-7.141,15.949-15.949,15.949H5.231c-8.809,0-15.95-7.141-15.95-15.949"/>
		<path d="M109.42-8.849c0,8.283-6.717,15-15,15H5.581c-8.284,0-15-6.717-15-15"/>
	</g>
</g>
</svg>
