<svg xmlns="http://www.w3.org/2000/svg" width="689" height="365"><path fill-rule="evenodd" d="M318.564 202.404H28.621s-5.025-.112-9.063-2.52c-3.184-1.9-5.457-6.354-6.054-8.177-.95-2.898-.809-8.828-.809-8.828l.001-112.503s-.186-5.087 1.834-9.252c1.477-3.046 4.567-5.535 5.981-6.167 2.062-.922 4.677-1.544 6.402-1.777 1.259-.171 3.401-.123 3.401-.123h285.689s6.703-.136 11.155 1.902c1.414.647 4.844 3.04 6.88 7.712.691 1.588.909 4.639.983 5.959.02.351.063 1.994.063 1.994l.016 14.098s-.084 1.118-.857 1.719c-.401.312-.817.503-.894.503-3.794 0-7.333.66-9.161 4.899-.147.34-.72 2.231-.72 3.309 0 .757-.021 1.922-.021 1.922l.014 63.385s.121 1.699.542 2.805c.466 1.223 1.392 2.685 2.787 3.753a9.297 9.297 0 0 0 3.424 1.658c1.799.435 2.477.164 3.377.398.774.201 1.505 1.107 1.505 1.908 0 .122-.004.342-.004.342l.022 12.947s-.067 6.33-1.292 9.225c-1.317 3.111-3.902 5.38-5.118 6.166-2.977 1.924-5.571 2.743-10.14 2.743z"/></svg>