<svg xmlns="http://www.w3.org/2000/svg" width="1610" height="991"><path fill-rule="evenodd" d="M621.047 388.016H66.51s-9.748-.111-17.47-4.713c-6.09-3.63-10.346-11.394-11.515-14.87-2.086-6.204-1.773-17.863-1.773-17.863l.019-214.818s-.465-9.759 3.399-17.717c2.825-5.82 8.939-10.636 11.645-11.844 3.944-1.762 7.873-2.836 11.174-3.282 2.407-.325 4.86-.233 4.86-.233h549.3s12.09-1.032 21.543 3.275c2.707 1.233 9.265 5.807 13.158 14.735 1.323 3.033 1.836 9.168 2.061 11.743.058.67.118 3.81.118 3.81l-.058 25.86s-.16 2.137-1.639 3.285c-.766.595-1.561.961-1.71.961-7.256 0-14.324 2.336-17.82 10.435-.28.648-1.377 4.262-1.377 6.322 0 1.445-.039 3.672-.039 3.672l.025 121.102s.233 3.245 1.038 5.359c.89 2.338 2.661 5.131 5.331 7.171 1.943 1.486 4.204 2.601 6.548 3.168 3.44.831 4.778.401 6.5.848 1.48.385 3.196 2.608 3.196 3.556 0 .235-.008.654-.008.654l.042 24.736s-.487 12.094-2.831 17.626c-2.517 5.943-7.462 10.279-9.787 11.781-5.694 3.676-10.655 5.241-19.393 5.241z"/></svg>