<svg xmlns="http://www.w3.org/2000/svg" width="1546" height="376"><path fill-rule="evenodd" d="M1545.996 5.497l-1001.727.09s-78.218-.956-126.985 6.991c-11.495 1.873-28.39 5.144-42.029 9.614-16.118 5.282-28.162 11.699-28.162 11.699S244.265 93.123 94.605 179.792c-24.994 14.474-34.973 20.318-34.973 20.318s-9.192 5.571-12.621 8.516c-1.742 1.496-5.215 5.428-6.925 7.293-.63.687-1.788.176-2.471.393-.684.218-1.325.849-1.325.849s-28.635 27.36-28.104 62.488c.043 2.823.149 36.61 26.177 60.125 9.863 8.911 24.801 16.965 45.914 21.892 26.219 6.118 57.618 8.404 85.561 8.404 3.692 0 20.775.748 22.319.748 179.975 0 1357.844.174 1357.844.174l-.005-365.495z"/></svg>