<?xml version="1.0" encoding="utf-8"?>
<!-- Generator: Adobe Illustrator 24.0.0, SVG Export Plug-In . SVG Version: 6.00 Build 0)  -->
<svg version="1.1" id="Light" xmlns="http://www.w3.org/2000/svg" xmlns:xlink="http://www.w3.org/1999/xlink" x="0px" y="0px"
	 viewBox="0 0 25 54" style="enable-background:new 0 0 25 54;" xml:space="preserve">
<style type="text/css">
	.st0{fill:#1D1D1F;}
</style>
<title>family-chapternav-watch-master-03-weir</title>
<path id="Apple_Watch_Series_1" class="st0" d="M24,28v-5h-1v-1.7c0-0.8-0.2-1.5-0.6-2.2c-0.4-0.7-1.1-1.3-1.5-1.9
	c-0.6-0.9-1-1.9-1.3-3c-0.3-1.1-0.2-2.3-0.4-3.5c-0.2-0.8-0.9-1.4-1.7-1.4c-0.9-0.1-1.9-0.2-2.8-0.3S12.7,9,11.7,9
	C9.8,9,8,9.1,6.1,9.4C5.6,9.6,5.1,10,5,10.6c-0.1,0.5-0.2,1.9-0.3,2.6c-0.1,1.6-0.8,3.2-1.9,4.4l-0.5,0.5C1.5,19,1,20.1,1,21.3v17.3
	c0,1.2,0.5,2.4,1.4,3.2c1.3,1,2.1,2.5,2.2,4.1c0.2,1.2,0.1,2.3,0.3,3.5c0.2,0.6,0.7,1,1.3,1.1c2,0.3,4,0.5,6.1,0.4
	c1.9,0,3.7-0.1,5.6-0.4c0.6-0.1,1-0.6,1.2-1.1c0.1-0.5-0.1-3.2,0.8-4.8c0.3-0.6,1.7-2.7,1.7-2.7s0.2-0.2,0.2-0.3
	c0.8-0.8,1.3-1.9,1.3-3.1V28H24z M22,38.7c0.1,1.7-1.3,3.2-3,3.3H5c-1.7-0.1-3.1-1.6-3-3.3V21.3c-0.1-1.7,1.3-3.2,3-3.3h14
	c1.7,0.1,3.1,1.6,3,3.3V38.7z"/>
</svg>
