<svg xmlns="http://www.w3.org/2000/svg" width="588" height="300"><path fill-rule="evenodd" d="M54.972 24H537.018s4.998-.111 9.409 1.015c5.159 1.316 8.373 3.91 9.672 4.966 3.023 2.457 5.744 6.093 7.163 10.017 1.109 3.068 1.891 9.82 1.891 9.82S565 73.388 565 85.5v118c0 10.987.191 43.35.191 43.35s-.61 7.899-1.497 10.788c-2.1 6.845-5.848 11.414-10.958 14.023-8.83 4.507-16.917 3.883-37.236 3.839h-376c-42.866 0-89.472-.067-89.472-.067s-4.114.078-8.474-1.007c-3.39-.843-6.927-2.663-8.806-4.008-3.587-2.568-6.078-6.301-8.109-10.403-1.413-2.855-2.144-9.67-2.144-9.67l.005-28.391s.272-2.123 2.573-2.657c2.097-.487 4.335-.154 7.137-1.266 3.165-1.255 7.068-3.95 8.29-6.531 1.961-4.143 2.02-10.231 2.02-10.231s-.02-14.959-.02-20.769v-62c0-6.529-.084-21.935-.084-21.935s-.189-3.954-.916-6.065c-1.789-5.19-5.655-8.181-10-9.5-2.371-.719-4.735-.412-6.426-.859-2.533-.669-2.605-2.88-2.605-2.88l.005-28.928s.585-6.625 3.675-12.033c2.582-4.518 7.508-7.861 9.64-8.878 1.829-.873 4.682-2.191 7.674-2.707C49.028 23.754 54.972 24 54.972 24z"/></svg>