<svg xmlns="http://www.w3.org/2000/svg" width="338" height="936"><path fill-rule="evenodd" d="M80.861 33.493l31.597 9.09s2.326 1.235 2.69 1.748c2.57 3.623 1.328 7.202 2.087 11.247.674 3.593 1.043 6.082 2.741 9.81 1.639 3.601 3.84 7.223 7.1 10.361 4.457 4.289 15.606 6.634 15.606 6.634l106.559 30.056s5.825 1.424 8.017.805c7.974-2.596 9.374-9.653 9.935-14.588.593-5.214.072-8.107 2.128-9.313 1.776-1.041 3.902.083 10.229 1.833 5.751 1.592 13.14 3.618 16.996 4.929 3.994 1.216 11.733 4.833 16.204 10.41 7.551 9.42 10.038 19.324 11.104 28.234.505 4.222.53 11.59.53 11.59l-.136 692.938s-.05 14.825-.05 23.061c-.511 3.161-.725 6.132-1.214 8.848-1.034 5.748-2.62 10.741-6.307 15.715-7.145 9.637-17.239 9.913-17.239 9.913l-4.976.115-203.583-2.339s-7.448-.042-8.569-.178c-9.81-1.197-14.969-3.974-19.055-8.538-4.228-4.722-6.582-8.454-8.289-14.025-3.418-10.944-3.427-22.743-3.427-22.743l.048-780.63s-.379-22.963 11.317-31.507c1.721-1.257 5.629-3.461 9.595-3.843 4.064-.391 8.362.367 8.362.367z"/></svg>