<svg xmlns="http://www.w3.org/2000/svg" width="456" height="1264"><path fill-rule="evenodd" d="M109.15 42.063l42.655 11.907s3.321 2.092 3.814 2.788c3.483 4.911 1.8 9.763 2.829 15.248.914 4.87 1.414 8.245 3.715 13.3 2.221 4.881 5.204 9.792 9.623 14.046 6.041 5.815 21.24 8.889 21.24 8.889l144.423 40.657s7.805 2.127 10.776 1.288c10.807-3.52 13.111-13.102 13.872-19.792.804-7.069.341-11.234 2.477-12.611 2.345-1.513 5.288.112 13.863 2.485 7.794 2.157 17.809 4.904 23.035 6.682 5.413 1.648 15.903 6.552 21.962 14.114 10.234 12.771 13.605 26.197 15.05 38.278.684 5.724.718 15.712.718 15.712l-.185 939.452s-.068 20.1-.068 31.266c-.692 4.285-.982 8.313-1.644 11.995-1.402 7.794-3.552 14.563-8.549 21.306-9.683 13.065-23.365 13.439-23.365 13.439l-6.743.157-275.921-3.172s-10.095-.056-11.614-.242c-13.295-1.622-20.288-5.387-25.826-11.575-5.729-6.401-8.921-11.461-11.234-19.014-4.632-14.837-4.645-30.834-4.645-30.834l.065-1058.34s-.514-31.133 15.338-42.715c2.334-1.705 7.63-4.694 13.005-5.211 5.508-.53 11.334.497 11.334.497z"/></svg>