<svg xmlns="http://www.w3.org/2000/svg" width="952" height="652"><path fill-rule="evenodd" d="M468.943 296.628H47.595s-7.407-.084-13.274-3.585c-4.628-2.761-7.862-8.667-8.75-11.31-1.585-4.719-1.347-13.587-1.347-13.587l.015-163.393s-.354-7.423 2.582-13.476c2.147-4.426 6.793-8.089 8.848-9.008 2.997-1.34 5.983-2.157 8.49-2.496 1.829-.247 3.694-.178 3.694-.178h417.369s9.186-.785 16.369 2.491c2.056.938 7.039 4.417 9.997 11.208 1.005 2.307 1.395 6.973 1.566 8.932.044.509.09 2.897.09 2.897l-.044 19.67s-.122 1.625-1.246 2.499c-.582.452-1.186.73-1.299.73-5.513 0-10.883 1.777-13.54 7.938-.213.493-1.046 3.241-1.046 4.808 0 1.099-.03 2.793-.03 2.793l.02 92.111s.177 2.469.788 4.077c.677 1.778 2.022 3.902 4.05 5.454 1.477 1.13 3.195 1.978 4.976 2.409 2.614.633 3.63.306 4.938.646 1.126.293 2.429 1.983 2.429 2.705 0 .178-.006.497-.006.497l.032 18.814s-.37 9.199-2.151 13.407c-1.913 4.52-5.67 7.818-7.437 8.961-4.326 2.796-8.095 3.986-14.735 3.986z"/></svg>