<svg xmlns="http://www.w3.org/2000/svg" fill-rule="evenodd" stroke-linejoin="round" stroke-miterlimit="2" clip-rule="evenodd" viewBox="0 0 13 8"><defs/><path fill="#999" fill-rule="nonzero" d="M32.3,48.566C33.496,48.566 34.526,48.102 35.39,47.206L60.624,21.37C61.369,20.651 61.778,19.651 61.752,18.616C61.752,16.39 60.026,14.664 57.834,14.664C56.763,14.675 55.738,15.104 54.98,15.86L32.334,39.136L9.624,15.862C8.885,15.096 7.864,14.664 6.8,14.666L6.748,14.666C4.609,14.666 2.85,16.425 2.85,18.564L2.85,18.618C2.85,19.678 3.282,20.61 4.012,21.372L29.246,47.204C30.176,48.134 31.14,48.566 32.302,48.566L32.3,48.566Z" transform="translate(-.6 -3.1) scale(.21186)"/></svg>
