<svg height="24" width="24" xmlns="http://www.w3.org/2000/svg">
  <path d="M5.128 0h13.744c1.783 0 2.43.186 3.082.534.652.349 1.163.86 1.512 1.512S24 3.345 24 5.128v13.744c0 1.783-.186 2.43-.534 3.082a3.635 3.635 0 0 1-1.512 1.512c-.652.348-1.299.534-3.082.534H5.128c-1.783 0-2.43-.186-3.082-.534s-1.163-.86-1.512-1.512C.186 21.302 0 20.655 0 18.872V5.128c0-1.783.186-2.43.534-3.082A3.635 3.635 0 0 1 2.046.534C2.698.186 3.345 0 5.128 0z" fill-opacity=".1"/>
  <path d="M14.161 6.109c0-.467.338-.67.721-.76l3.574-.796c.722-.157 1.044.024 1.044.714v2.508c0 .406-.21.616-.811.75l-3.131.699c-.353.075-.459.166-.459.586v7.225c0 2.125-1.704 2.613-2.755 2.613-1.067 0-1.885-.82-1.885-1.832 0-1.254.938-1.772 2.065-2.043l1.141-.232c.353-.083.496-.37.496-.691zM12 12.495a.393.393 0 0 1-.393.407H4.386c-.218 0-.386-.173-.386-.406a.39.39 0 0 1 .386-.398h7.221c.219 0 .393.18.393.397zm0-3.006a.4.4 0 0 1-.393.413H4.386c-.218 0-.386-.181-.386-.413 0-.21.168-.391.386-.391h7.221c.219 0 .393.181.393.391zm0-2.994a.398.398 0 0 1-.393.407H4.386c-.218 0-.386-.181-.386-.407a.39.39 0 0 1 .386-.397h7.221c.219 0 .393.179.393.397z" fill-opacity=".65"/>
</svg>
