<svg xmlns="http://www.w3.org/2000/svg" width="24" height="24"><g fill-rule="evenodd"><path fill-opacity=".1" d="M5.128 0h13.744c1.783 0 2.43.186 3.082.534.652.349 1.163.86 1.512 1.512.348.652.534 1.299.534 3.082v13.744c0 1.783-.186 2.43-.534 3.082a3.635 3.635 0 01-1.512 1.512c-.652.348-1.299.534-3.082.534H5.128c-1.783 0-2.43-.186-3.082-.534a3.635 3.635 0 01-1.512-1.512C.186 21.302 0 20.655 0 18.872V5.128c0-1.783.186-2.43.534-3.082A3.635 3.635 0 012.046.534C2.698.186 3.345 0 5.128 0z"/><path fill-opacity=".15" d="M19 10H5V6.553c0-.5.447-.553.64-.553h2.357c.463 0 .548.051.812.26l.6.457c.632.48 1.094.707 2.005.707h6.955c.465 0 .631.34.631.631V10zm0 1v5.431c0 .495-.395.569-.631.569H5.632C5.396 17 5 16.926 5 16.431V11h14z"/><path fill-opacity=".65" d="M5.7 5h2.335c.68 0 1.012.12 1.471.482l.591.454C10.563 6.29 10.791 7 11.42 7h6.888C19.298 7 20 7.142 20 8.07v8.34c0 .93-.702 1.59-1.692 1.59H5.693C4.702 18 4 17.34 4 16.41V6.574C4 5.652 4.717 5 5.7 5zm3.11 1.26C8.544 6.05 8.46 6 7.996 6H5.64c-.193 0-.64.053-.64.553v9.878c0 .495.396.569.632.569H18.37c.236 0 .631-.074.631-.569V8.056c0-.292-.166-.056-.631-.056h-6.955c-.91 0-1.373-.803-2.005-1.283l-.6-.458zM5 10h14v1H5v-1z"/></g></svg>