<svg xmlns="http://www.w3.org/2000/svg" width="24" height="24"><g fill="#FFF" fill-rule="evenodd"><path fill-opacity=".1" d="M5.128 0h13.744c1.783 0 2.43.186 3.082.534.652.349 1.163.86 1.512 1.512.348.652.534 1.299.534 3.082v13.744c0 1.783-.186 2.43-.534 3.082a3.635 3.635 0 01-1.512 1.512c-.652.348-1.299.534-3.082.534H5.128c-1.783 0-2.43-.186-3.082-.534a3.635 3.635 0 01-1.512-1.512C.186 21.302 0 20.655 0 18.872V5.128c0-1.783.186-2.43.534-3.082A3.635 3.635 0 012.046.534C2.698.186 3.345 0 5.128 0z"/><path fill-opacity=".15" d="M19 10H5V6.553c0-.5.447-.553.64-.553h2.357c.463 0 .548.051.812.26l.6.457c.632.48 1.094.707 2.005.707h6.955c.465 0 .631.34.631.631V10zm0 1v5.431c0 .495-.395.569-.631.569H5.632C5.396 17 5 16.926 5 16.431V11h14z"/><path fill-opacity=".65" d="M5.7 5C4.717 5 4 5.652 4 6.574v9.836c0 .93.702 1.59 1.693 1.59h12.615c.99 0 1.692-.66 1.692-1.59V8.07C20 7.142 19.298 7 18.308 7H11.42c-.629 0-.857-.71-1.323-1.064l-.59-.454C9.046 5.12 8.715 5 8.034 5H5.7zm3.11 1.26l.599.457C10.04 7.197 10.503 8 11.414 8h6.955c.465 0 .631-.236.631.055v8.376c0 .495-.395.569-.631.569H5.632C5.396 17 5 16.926 5 16.431V6.553c0-.5.447-.553.64-.553h2.357c.463 0 .548.051.812.26z"/><path fill-opacity=".65" d="M5 10h14v1H5z"/></g></svg>